<svg xmlns="http://www.w3.org/2000/svg" viewBox="0 0 384 512"><!-- Font Awesome Free 6.7.2, CC BY 4.0; extracted from the existing repository font. --><path transform="translate(0 448) scale(1 -1)" d="M64 448Q37 447 19 429Q1 411 0 384V0Q1 -27 19 -45Q37 -63 64 -64H320Q347 -63 365 -45Q383 -27 384 0V288H256Q242 288 233 297Q224 306 224 320V448H64ZM256 448V320V448V320H384L256 448ZM112 192H272H112H272Q287 191 288 176Q287 161 272 160H112Q97 161 96 176Q97 191 112 192ZM112 128H272H112H272Q287 127 288 112Q287 97 272 96H112Q97 97 96 112Q97 127 112 128ZM112 64H272H112H272Q287 63 288 48Q287 33 272 32H112Q97 33 96 48Q97 63 112 64Z"/></svg>