<svg width="1200" height="720" viewBox="0 0 1200 720" fill="none" xmlns="http://www.w3.org/2000/svg">
<defs>
<linearGradient id="gcapability-foundation-map" x1="0" y1="0" x2="1200" y2="720" gradientUnits="userSpaceOnUse">
<stop offset="0" stop-color="#F8FAFF"/>
<stop offset="1" stop-color="#EDF5FF"/>
</linearGradient>
<filter id="shadowcapability-foundation-map" x="-20%" y="-20%" width="140%" height="140%">
<feDropShadow dx="0" dy="8" stdDeviation="10" flood-color="#0F1C33" flood-opacity="0.12"/>
</filter>
<marker id="arrowcapability-foundation-map" markerWidth="10" markerHeight="10" refX="7" refY="3" orient="auto">
<path d="M0,0 L0,6 L8,3 z" fill="#3E76E8"/>
</marker>
<style>
.ttl { font: 700 34px 'Microsoft YaHei','PingFang SC','Noto Sans SC',sans-serif; fill: #1C2840; }
.sub { font: 500 19px 'Microsoft YaHei','PingFang SC','Noto Sans SC',sans-serif; fill: #556681; }
.h3 { font: 700 22px 'Microsoft YaHei','PingFang SC','Noto Sans SC',sans-serif; fill: #1F2A44; }
.body { font: 500 17px 'Microsoft YaHei','PingFang SC','Noto Sans SC',sans-serif; fill: #5C6F8F; }
.cap { font: 600 16px 'Microsoft YaHei','PingFang SC','Noto Sans SC',sans-serif; fill: #2A3F66; }
.small { font: 500 14px 'Microsoft YaHei','PingFang SC','Noto Sans SC',sans-serif; fill: #6A7A95; }
</style>
</defs>
<rect x="18" y="18" width="1164" height="684" rx="28" fill="url(#gcapability-foundation-map)" stroke="#DCE6F5"/>
<text x="600" y="86" text-anchor="middle" class="ttl">
<tspan x="600" dy="0">能力底座工具地图</tspan>
</text>
<text x="600" y="124" text-anchor="middle" class="sub">
<tspan x="600" dy="0">多类工具统一发现、统一调用、统一治理</tspan>
</text>
<g filter="url(#shadowcapability-foundation-map)"><rect x="100" y="192" width="318" height="140" rx="16" fill="#FFFFFF" stroke="#D8E4F5"/></g>
<rect x="114" y="206" width="8" height="8" rx="4" fill="#3E76E8"/>
<text x="128" y="222" text-anchor="start" class="h3">
<tspan x="128" dy="0">内置工具</tspan>
</text>
<text x="118" y="254" text-anchor="start" class="body">
<tspan x="118" dy="0">文件命令脚本基础能力</tspan>
</text>
<g filter="url(#shadowcapability-foundation-map)"><rect x="440" y="192" width="318" height="140" rx="16" fill="#F8FBFF" stroke="#D8E4F5"/></g>
<rect x="454" y="206" width="8" height="8" rx="4" fill="#3E76E8"/>
<text x="468" y="222" text-anchor="start" class="h3">
<tspan x="468" dy="0">MCP 工具</tspan>
</text>
<text x="458" y="254" text-anchor="start" class="body">
<tspan x="458" dy="0">外部系统能力接入</tspan>
</text>
<g filter="url(#shadowcapability-foundation-map)"><rect x="780" y="192" width="318" height="140" rx="16" fill="#FFFFFF" stroke="#D8E4F5"/></g>
<rect x="794" y="206" width="8" height="8" rx="4" fill="#3E76E8"/>
<text x="808" y="222" text-anchor="start" class="h3">
<tspan x="808" dy="0">Skills</tspan>
</text>
<text x="798" y="254" text-anchor="start" class="body">
<tspan x="798" dy="0">SOP 流程固化复用</tspan>
</text>
<g filter="url(#shadowcapability-foundation-map)"><rect x="100" y="352" width="318" height="140" rx="16" fill="#F8FBFF" stroke="#D8E4F5"/></g>
<rect x="114" y="366" width="8" height="8" rx="4" fill="#3E76E8"/>
<text x="128" y="382" text-anchor="start" class="h3">
<tspan x="128" dy="0">知识库</tspan>
</text>
<text x="118" y="414" text-anchor="start" class="body">
<tspan x="118" dy="0">检索问答与追溯</tspan>
</text>
<g filter="url(#shadowcapability-foundation-map)"><rect x="440" y="352" width="318" height="140" rx="16" fill="#FFFFFF" stroke="#D8E4F5"/></g>
<rect x="454" y="366" width="8" height="8" rx="4" fill="#3E76E8"/>
<text x="468" y="382" text-anchor="start" class="h3">
<tspan x="468" dy="0">自建与共享</tspan>
</text>
<text x="458" y="414" text-anchor="start" class="body">
<tspan x="458" dy="0">个人与团队能力沉淀</tspan>
</text>
<g filter="url(#shadowcapability-foundation-map)"><rect x="780" y="352" width="318" height="140" rx="16" fill="#F8FBFF" stroke="#D8E4F5"/></g>
<rect x="794" y="366" width="8" height="8" rx="4" fill="#3E76E8"/>
<text x="808" y="382" text-anchor="start" class="h3">
<tspan x="808" dy="0">A2A 服务</tspan>
</text>
<text x="798" y="414" text-anchor="start" class="body">
<tspan x="798" dy="0">跨系统智能体互通</tspan>
</text>
<rect x="90" y="532" width="322" height="94" rx="14" fill="#FFFFFF" stroke="#D8E4F5"/>
<text x="108" y="570" text-anchor="start" class="small">
<tspan x="108" dy="0">扩展能力不改主链路</tspan>
</text>
<rect x="436" y="532" width="322" height="94" rx="14" fill="#FFFFFF" stroke="#D8E4F5"/>
<text x="454" y="570" text-anchor="start" class="small">
<tspan x="454" dy="0">权限策略统一生效</tspan>
</text>
<rect x="782" y="532" width="322" height="94" rx="14" fill="#FFFFFF" stroke="#D8E4F5"/>
<text x="800" y="570" text-anchor="start" class="small">
<tspan x="800" dy="0">能力可持续复用</tspan>
</text>
</svg>
