<svg width="1200" height="720" viewBox="0 0 1200 720" fill="none" xmlns="http://www.w3.org/2000/svg">
<defs>
  <linearGradient id="bg-org" x1="0" y1="0" x2="1200" y2="720" gradientUnits="userSpaceOnUse">
    <stop offset="0" stop-color="#F7FAFF"/>
    <stop offset="1" stop-color="#EDF4FF"/>
  </linearGradient>
  <filter id="shadow-org" x="-20%" y="-20%" width="140%" height="140%">
    <feDropShadow dx="0" dy="8" stdDeviation="10" flood-color="#0F1C33" flood-opacity="0.12"/>
  </filter>
  <style>
    .ttl { font: 700 34px 'Microsoft YaHei','PingFang SC','Noto Sans SC',sans-serif; fill: #1C2840; }
    .sub { font: 500 19px 'Microsoft YaHei','PingFang SC','Noto Sans SC',sans-serif; fill: #556681; }
    .h3 { font: 700 21px 'Microsoft YaHei','PingFang SC','Noto Sans SC',sans-serif; fill: #1F2A44; }
    .body { font: 500 16px 'Microsoft YaHei','PingFang SC','Noto Sans SC',sans-serif; fill: #5C6F8F; }
    .cap { font: 600 15px 'Microsoft YaHei','PingFang SC','Noto Sans SC',sans-serif; fill: #2A3F66; }
  </style>
</defs>

<rect x="18" y="18" width="1164" height="684" rx="28" fill="url(#bg-org)" stroke="#DCE6F5"/>

<text x="600" y="86" text-anchor="middle" class="ttl">组织治理主模型</text>
<text x="600" y="124" text-anchor="middle" class="sub">用户、单位、权限与配额的一体化治理结构</text>

<g filter="url(#shadow-org)">
  <rect x="500" y="165" width="200" height="72" rx="14" fill="#FFFFFF" stroke="#D7E3F4"/>
</g>
<text x="600" y="208" text-anchor="middle" class="h3">治理中心</text>

<line x1="600" y1="237" x2="240" y2="300" stroke="#4A7CF2" stroke-opacity="0.45" stroke-width="2"/>
<line x1="600" y1="237" x2="600" y2="300" stroke="#4A7CF2" stroke-opacity="0.45" stroke-width="2"/>
<line x1="600" y1="237" x2="960" y2="300" stroke="#4A7CF2" stroke-opacity="0.45" stroke-width="2"/>

<rect x="140" y="300" width="200" height="68" rx="12" fill="#FFFFFF" stroke="#D8E4F5"/>
<text x="240" y="341" text-anchor="middle" class="h3">组织树</text>

<rect x="500" y="300" width="200" height="68" rx="12" fill="#FFFFFF" stroke="#D8E4F5"/>
<text x="600" y="341" text-anchor="middle" class="h3">账号体系</text>

<rect x="860" y="300" width="200" height="68" rx="12" fill="#FFFFFF" stroke="#D8E4F5"/>
<text x="960" y="341" text-anchor="middle" class="h3">访问策略</text>

<line x1="240" y1="368" x2="140" y2="430" stroke="#4A7CF2" stroke-opacity="0.32" stroke-width="1.8"/>
<line x1="240" y1="368" x2="320" y2="430" stroke="#4A7CF2" stroke-opacity="0.32" stroke-width="1.8"/>
<line x1="600" y1="368" x2="500" y2="430" stroke="#4A7CF2" stroke-opacity="0.32" stroke-width="1.8"/>
<line x1="600" y1="368" x2="680" y2="430" stroke="#4A7CF2" stroke-opacity="0.32" stroke-width="1.8"/>
<line x1="960" y1="368" x2="860" y2="430" stroke="#4A7CF2" stroke-opacity="0.32" stroke-width="1.8"/>
<line x1="960" y1="368" x2="1040" y2="430" stroke="#4A7CF2" stroke-opacity="0.32" stroke-width="1.8"/>

<rect x="60" y="430" width="160" height="64" rx="11" fill="#F9FCFF" stroke="#DCE7F5"/>
<text x="140" y="468" text-anchor="middle" class="body">单位层级</text>

<rect x="240" y="430" width="160" height="64" rx="11" fill="#F9FCFF" stroke="#DCE7F5"/>
<text x="320" y="468" text-anchor="middle" class="body">角色权限</text>

<rect x="420" y="430" width="160" height="64" rx="11" fill="#F9FCFF" stroke="#DCE7F5"/>
<text x="500" y="468" text-anchor="middle" class="body">工具白名单</text>

<rect x="600" y="430" width="160" height="64" rx="11" fill="#F9FCFF" stroke="#DCE7F5"/>
<text x="680" y="468" text-anchor="middle" class="body">智能体权限</text>

<rect x="780" y="430" width="160" height="64" rx="11" fill="#F9FCFF" stroke="#DCE7F5"/>
<text x="860" y="468" text-anchor="middle" class="body">每日配额</text>

<rect x="960" y="430" width="160" height="64" rx="11" fill="#F9FCFF" stroke="#DCE7F5"/>
<text x="1040" y="468" text-anchor="middle" class="body">审计记录</text>

<g filter="url(#shadow-org)">
  <rect x="70" y="548" width="330" height="94" rx="14" fill="#FFFFFF" stroke="#D7E3F4"/>
</g>
<text x="95" y="586" class="cap">关键点 1</text>
<text x="95" y="612" class="body">线程用户与注册用户角色区分</text>

<g filter="url(#shadow-org)">
  <rect x="435" y="548" width="330" height="94" rx="14" fill="#FFFFFF" stroke="#D7E3F4"/>
</g>
<text x="460" y="586" class="cap">关键点 2</text>
<text x="460" y="612" class="body">策略可细粒度覆盖到工具级</text>

<g filter="url(#shadow-org)">
  <rect x="800" y="548" width="330" height="94" rx="14" fill="#FFFFFF" stroke="#D7E3F4"/>
</g>
<text x="825" y="586" class="cap">关键点 3</text>
<text x="825" y="612" class="body">配额规则可直接约束模型调用</text>
</svg>
