<svg width="1200" height="720" viewBox="0 0 1200 720" fill="none" xmlns="http://www.w3.org/2000/svg">
<defs>
<linearGradient id="gworkspace-asset-lifecycle" x1="0" y1="0" x2="1200" y2="720" gradientUnits="userSpaceOnUse">
<stop offset="0" stop-color="#F7FAFF"/>
<stop offset="1" stop-color="#EDF4FF"/>
</linearGradient>
<filter id="shadowworkspace-asset-lifecycle" x="-20%" y="-20%" width="140%" height="140%">
<feDropShadow dx="0" dy="8" stdDeviation="10" flood-color="#0F1C33" flood-opacity="0.12"/>
</filter>
<marker id="arrowworkspace-asset-lifecycle" markerWidth="10" markerHeight="10" refX="7" refY="3" orient="auto">
<path d="M0,0 L0,6 L8,3 z" fill="#4A82F5"/>
</marker>
<style>
.ttl { font: 700 34px 'Microsoft YaHei','PingFang SC','Noto Sans SC',sans-serif; fill: #1C2840; }
.sub { font: 500 19px 'Microsoft YaHei','PingFang SC','Noto Sans SC',sans-serif; fill: #556681; }
.h3 { font: 700 22px 'Microsoft YaHei','PingFang SC','Noto Sans SC',sans-serif; fill: #1F2A44; }
.body { font: 500 17px 'Microsoft YaHei','PingFang SC','Noto Sans SC',sans-serif; fill: #5C6F8F; }
.cap { font: 600 16px 'Microsoft YaHei','PingFang SC','Noto Sans SC',sans-serif; fill: #2A3F66; }
.small { font: 500 14px 'Microsoft YaHei','PingFang SC','Noto Sans SC',sans-serif; fill: #6A7A95; }
</style>
</defs>
<rect x="18" y="18" width="1164" height="684" rx="28" fill="url(#gworkspace-asset-lifecycle)" stroke="#DCE6F5"/>
<text x="600" y="86" text-anchor="middle" class="ttl">
<tspan x="600" dy="0">工作区资产沉淀链路</tspan>
</text>
<text x="600" y="124" text-anchor="middle" class="sub">
<tspan x="600" dy="0">把每次执行产物留在可复用的用户工作区</tspan>
</text>
<line x1="600" y1="186" x2="600" y2="494" stroke="#4A82F5" stroke-width="4" stroke-linecap="round"/>
<g filter="url(#shadowworkspace-asset-lifecycle)"><rect x="120" y="142" width="410" height="88" rx="14" fill="#FFFFFF" stroke="#D7E3F4"/></g>
<circle cx="600" cy="186" r="12" fill="#FFFFFF" stroke="#4A82F5" stroke-width="3"/>
<circle cx="600" cy="186" r="5" fill="#4A82F5"/>
<line x1="530" y1="186" x2="600" y2="186" stroke="#4A82F5" stroke-opacity="0.5" stroke-width="2"/>
<text x="140" y="178" text-anchor="start" class="h3">
<tspan x="140" dy="0">任务触发</tspan>
</text>
<text x="140" y="206" text-anchor="start" class="body">
<tspan x="140" dy="0">用户消息或渠道消息进入调度</tspan>
</text>
<g filter="url(#shadowworkspace-asset-lifecycle)"><rect x="670" y="219" width="410" height="88" rx="14" fill="#FFFFFF" stroke="#D7E3F4"/></g>
<circle cx="600" cy="263" r="12" fill="#FFFFFF" stroke="#4A82F5" stroke-width="3"/>
<circle cx="600" cy="263" r="5" fill="#4A82F5"/>
<line x1="670" y1="263" x2="600" y2="263" stroke="#4A82F5" stroke-opacity="0.5" stroke-width="2"/>
<text x="690" y="255" text-anchor="start" class="h3">
<tspan x="690" dy="0">工具执行</tspan>
</text>
<text x="690" y="283" text-anchor="start" class="body">
<tspan x="690" dy="0">文件与脚本生成中间结果</tspan>
</text>
<g filter="url(#shadowworkspace-asset-lifecycle)"><rect x="120" y="296" width="410" height="88" rx="14" fill="#FFFFFF" stroke="#D7E3F4"/></g>
<circle cx="600" cy="340" r="12" fill="#FFFFFF" stroke="#4A82F5" stroke-width="3"/>
<circle cx="600" cy="340" r="5" fill="#4A82F5"/>
<line x1="530" y1="340" x2="600" y2="340" stroke="#4A82F5" stroke-opacity="0.5" stroke-width="2"/>
<text x="140" y="332" text-anchor="start" class="h3">
<tspan x="140" dy="0">写入工作区</tspan>
</text>
<text x="140" y="360" text-anchor="start" class="body">
<tspan x="140" dy="0">/workspaces/&lt;user_id&gt;</tspan>
<tspan x="140" dy="24">持久化保存</tspan>
</text>
<g filter="url(#shadowworkspace-asset-lifecycle)"><rect x="670" y="373" width="410" height="88" rx="14" fill="#FFFFFF" stroke="#D7E3F4"/></g>
<circle cx="600" cy="417" r="12" fill="#FFFFFF" stroke="#4A82F5" stroke-width="3"/>
<circle cx="600" cy="417" r="5" fill="#4A82F5"/>
<line x1="670" y1="417" x2="600" y2="417" stroke="#4A82F5" stroke-opacity="0.5" stroke-width="2"/>
<text x="690" y="409" text-anchor="start" class="h3">
<tspan x="690" dy="0">轨迹记录</tspan>
</text>
<text x="690" y="437" text-anchor="start" class="body">
<tspan x="690" dy="0">会话历史与工具日志同步落库</tspan>
</text>
<g filter="url(#shadowworkspace-asset-lifecycle)"><rect x="120" y="450" width="410" height="88" rx="14" fill="#FFFFFF" stroke="#D7E3F4"/></g>
<circle cx="600" cy="494" r="12" fill="#FFFFFF" stroke="#4A82F5" stroke-width="3"/>
<circle cx="600" cy="494" r="5" fill="#4A82F5"/>
<line x1="530" y1="494" x2="600" y2="494" stroke="#4A82F5" stroke-opacity="0.5" stroke-width="2"/>
<text x="140" y="486" text-anchor="start" class="h3">
<tspan x="140" dy="0">跨会话复用</tspan>
</text>
<text x="140" y="514" text-anchor="start" class="body">
<tspan x="140" dy="0">继续编辑、共享与自动化调用</tspan>
</text>
<rect x="110" y="540" width="300" height="100" rx="16" fill="#FFFFFF" stroke="#D7E3F4"/>
<text x="260" y="582" text-anchor="middle" class="small">
<tspan x="260" dy="0">输出从文本升级为资产</tspan>
</text>
<rect x="440" y="540" width="300" height="100" rx="16" fill="#FFFFFF" stroke="#D7E3F4"/>
<text x="590" y="582" text-anchor="middle" class="small">
<tspan x="590" dy="0">支持容器维度隔离目录</tspan>
</text>
<rect x="770" y="540" width="300" height="100" rx="16" fill="#FFFFFF" stroke="#D7E3F4"/>
<text x="920" y="582" text-anchor="middle" class="small">
<tspan x="920" dy="0">长期沉淀支撑业务复用</tspan>
</text>
</svg>
