<?xml version="1.0" encoding="UTF-8" standalone="no"?>
<!-- Generator: Adobe Illustrator 13.0.2, SVG Export Plug-In . SVG Version: 6.00 Build 14948)  -->

<svg
   xmlns:dc="http://purl.org/dc/elements/1.1/"
   xmlns:cc="http://creativecommons.org/ns#"
   xmlns:rdf="http://www.w3.org/1999/02/22-rdf-syntax-ns#"
   xmlns:svg="http://www.w3.org/2000/svg"
   xmlns="http://www.w3.org/2000/svg"
   xmlns:xlink="http://www.w3.org/1999/xlink"
   xmlns:sodipodi="http://sodipodi.sourceforge.net/DTD/sodipodi-0.dtd"
   xmlns:inkscape="http://www.inkscape.org/namespaces/inkscape"
   id="Layer_1"
   xml:space="preserve"
   height="1070.54"
   viewBox="0 0 1251.4018 1070.5223"
   width="1251.4302"
   version="1.1"
   y="0px"
   x="0px"
   enable-background="new 0 0 176.486 181.437"
   sodipodi:docname="logo.svg"
   inkscape:version="0.92.3 (2405546, 2018-03-11)"
   inkscape:export-filename="/tmp/tokio-xmpp.png"
   inkscape:export-xdpi="63.689999"
   inkscape:export-ydpi="63.689999"><metadata
   id="metadata41"><rdf:RDF><cc:Work
       rdf:about=""><dc:format>image/svg+xml</dc:format><dc:type
         rdf:resource="http://purl.org/dc/dcmitype/StillImage" /><dc:title></dc:title></cc:Work></rdf:RDF></metadata><defs
   id="defs39"><radialGradient
     inkscape:collect="always"
     xlink:href="#SVGID_1_"
     id="radialGradient4654"
     cx="166.88985"
     cy="40.555923"
     fx="166.88985"
     fy="40.555923"
     r="498.49179"
     gradientTransform="matrix(1.2093833,0,0,1.0737613,423.8704,491.7138)"
     gradientUnits="userSpaceOnUse" /><linearGradient
     inkscape:collect="always"
     xlink:href="#SVGID_1_"
     id="linearGradient4656"
     gradientUnits="userSpaceOnUse"
     gradientTransform="translate(1885.557,-704.53708)"
     x1="-1807.2"
     y1="125.86"
     x2="-1807.2"
     y2="0.00048828" /></defs><sodipodi:namedview
   pagecolor="#ffffff"
   bordercolor="#666666"
   borderopacity="1"
   objecttolerance="10"
   gridtolerance="10"
   guidetolerance="10"
   inkscape:pageopacity="0"
   inkscape:pageshadow="2"
   inkscape:window-width="1446"
   inkscape:window-height="1056"
   id="namedview37"
   showgrid="false"
   fit-margin-top="0"
   fit-margin-left="0"
   fit-margin-right="0"
   fit-margin-bottom="0"
   inkscape:zoom="0.32517636"
   inkscape:cx="488.51154"
   inkscape:cy="460.25958"
   inkscape:window-x="0"
   inkscape:window-y="20"
   inkscape:window-maximized="1"
   inkscape:current-layer="Layer_1" />
<linearGradient
   id="SVGID_1_"
   y2="0.00048828"
   gradientUnits="userSpaceOnUse"
   x2="-1807.2"
   gradientTransform="translate(1885.557,-704.53708)"
   y1="125.86"
   x1="-1807.2">
	<stop
   stop-color="#1b3967"
   offset=".011"
   id="stop2" />
	<stop
   stop-color="#13b5ea"
   offset=".467"
   id="stop4" />
	<stop
   stop-color="#002b5c"
   offset=".9945"
   id="stop6" />
</linearGradient>


<linearGradient
   id="SVGID_2_"
   y2="1.279e-13"
   gradientUnits="userSpaceOnUse"
   x2="-1073.2"
   gradientTransform="matrix(-1,0,0,1,-1038.643,-704.53708)"
   y1="126.85"
   x1="-1073.2">
	<stop
   stop-color="#1b3967"
   offset=".011"
   id="stop13" />
	<stop
   stop-color="#13b5ea"
   offset=".467"
   id="stop15" />
	<stop
   stop-color="#002b5c"
   offset=".9945"
   id="stop17" />
</linearGradient>




	
	
	
	
<path
   style="fill:url(#radialGradient4654);fill-opacity:1;stroke-width:1.20936334"
   d="m 314.30911,1061.7683 c -8.97073,-5.2395 -16.48089,-10.0377 -16.68926,-10.6628 -0.26982,-0.8095 166.28356,-288.11102 202.75565,-349.74973 l 2.54893,-4.30777 -9.36559,-8.39055 c -11.144,-9.98383 -22.35733,-21.92978 -28.0257,-29.85676 -2.25924,-3.15946 -4.2669,-5.74448 -4.46148,-5.74448 -0.19457,0 -30.6124,17.4714 -67.59521,38.82531 -36.98279,21.35393 -67.38191,38.63271 -67.55361,38.39729 -3.29619,-4.51935 -18.81062,-33.32415 -18.43899,-34.23468 0.28394,-0.69568 26.01362,-15.92783 57.17709,-33.84921 31.16345,-17.92139 61.09657,-35.1893 66.51803,-38.37317 l 9.85719,-5.78884 -4.65622,-13.21887 c -4.07486,-11.56836 -8.04326,-28.12263 -10.25106,-42.76242 l -0.68393,-4.53511 H 224.14076 22.836563 v -19.9545 -19.9545 H 224.14076 425.44495 l 0.68393,-4.5351 c 2.20688,-14.63373 6.17521,-31.19125 10.24412,-42.74274 l 4.64929,-13.19918 -9.85025,-5.77551 c -5.41765,-3.17654 -35.35061,-20.45332 -66.51769,-38.39286 -31.16709,-17.93955 -56.89677,-33.18655 -57.17709,-33.88223 -0.36614,-0.90866 15.08023,-29.58386 18.43579,-34.22491 0.16633,-0.23003 30.60498,17.07925 67.64147,38.4651 37.03649,21.38584 67.48667,38.71678 67.66708,38.51319 0.18041,-0.20358 3.5815,-4.45175 7.55796,-9.44037 8.55901,-10.73754 23.43746,-25.50319 33.56957,-33.31503 3.99089,-3.07699 7.42447,-6.0522 7.63019,-6.6116 0.20571,-0.55942 -45.66778,-80.05268 -101.94109,-176.65173 C 349.23634,94.87494 306.17509,19.72792 306.78588,19.11713 308.19161,17.71141 338.56097,0 339.56561,0 c 0.4291,0 47.02676,79.44412 103.55039,176.54249 78.60729,135.03455 103.19671,176.3654 104.58425,175.78931 14.01846,-5.82028 30.16056,-10.04645 55.32837,-14.48557 l 2.72106,-0.47993 v -75.56217 -75.56217 h 19.9545 19.9545 v 75.56217 75.56217 l 2.72106,0.54898 c 1.49659,0.30194 7.8911,1.43066 14.21003,2.50826 6.31892,1.07761 18.17561,4.17686 26.3482,6.88724 8.1726,2.71038 15.0185,4.72127 15.21314,4.46861 0.19462,-0.25264 46.29667,-79.48313 102.44897,-176.06777 C 862.75239,79.12698 909.11172,0.07996 909.62079,0.05159 c 0.50906,-0.0284 8.26445,4.16607 17.23414,9.32099 11.34048,6.51737 16.17929,9.93831 15.88418,11.22974 -0.23343,1.02145 -46.19384,80.42165 -102.13425,176.4449 l -101.70985,174.58771 8.10553,6.13315 c 11.47436,8.68226 26.67576,23.56058 35.4381,34.68493 6.76288,8.58593 7.73722,9.38055 10.03334,8.18278 1.39869,-0.72964 30.57007,-17.49239 64.82528,-37.25058 34.25522,-19.75818 63.46697,-36.5502 64.91498,-37.3156 2.49056,-1.31647 3.16664,-0.47069 12.51549,15.65711 5.43546,9.37681 9.42076,17.4631 8.85617,17.96951 -0.5646,0.5064 -30.14195,17.6627 -65.72746,38.12508 -35.58552,20.46239 -65.35304,37.81597 -66.15006,38.56352 -1.11691,1.04762 -0.36064,4.54738 3.29904,15.26687 4.30684,12.61506 9.00358,32.4176 9.89584,41.72304 l 0.34788,3.62809 201.66136,0.30589 201.6614,0.30588 v 19.94741 19.94741 l -201.6614,0.30589 -201.66136,0.30588 -0.34788,3.62809 c -0.89828,9.3683 -5.60703,29.15966 -10.02924,42.15394 -2.68469,7.88877 -4.71343,14.45948 -4.50826,14.60158 0.20516,0.14208 30.03265,17.30357 66.28331,38.13661 36.25066,20.83304 66.37223,38.28975 66.93683,38.7927 0.56459,0.50293 -3.42071,8.58638 -8.85617,17.96319 -9.34354,16.11862 -10.02635,16.97321 -12.51549,15.66392 -1.44801,-0.76167 -30.65976,-17.55164 -64.91498,-37.31105 -34.25521,-19.75941 -63.42659,-36.52524 -64.82528,-37.25737 -2.2992,-1.20352 -3.27874,-0.39721 -10.21442,8.40809 -4.21924,5.3566 -13.12221,14.88134 -19.78439,21.16609 -10.1228,9.54933 -11.90518,11.76555 -10.84787,13.48828 1.04335,1.69992 192.71096,330.83154 202.00872,346.88934 l 2.89322,4.9967 -17.11682,9.9052 c -9.41425,5.4479 -17.52207,9.4578 -18.01738,8.9109 -0.49531,-0.5468 -46.48965,-79.36099 -102.20961,-175.14256 -55.71998,-95.78159 -101.69517,-174.5851 -102.16708,-175.11893 -0.47193,-0.53385 -4.0675,0.47777 -7.99015,2.24805 -16.83432,7.59718 -33.19012,12.19105 -60.64646,17.03382 l -2.72106,0.47994 v 75.56218 75.56216 h -19.9545 -19.9545 V 813.3199 737.75772 l -2.72106,-0.56168 c -1.49659,-0.30894 -5.44214,-0.91495 -8.76789,-1.34671 -10.96151,-1.42303 -32.49085,-7.42089 -44.73737,-12.4634 -6.62528,-2.72794 -12.43791,-4.56618 -12.91696,-4.08498 -0.47905,0.4812 -46.66546,79.51377 -102.63647,175.62793 -55.971,96.11415 -102.12208,175.11582 -102.55794,175.55932 -0.43585,0.4435 -8.13215,-3.4805 -17.10288,-8.7199 z"
   id="path4674" /><path
   style="fill:url(#radialGradient4654);fill-opacity:1;stroke-width:1.20936334"
   d="m 615.24584,987.5771 c -16.03866,-5.72964 -23.70609,-24.21313 -16.75096,-40.38075 3.16819,-7.36465 7.25094,-11.42494 14.88068,-14.79874 11.24336,-4.97174 24.69485,-2.54323 33.23901,6.00096 5.52442,5.5244 7.6728,10.22156 8.41406,18.39619 1.94732,21.47547 -19.46247,38.04153 -39.78279,30.78234 z"
   id="path4668" /><path
   style="fill:url(#radialGradient4654);fill-opacity:1;stroke-width:1.20936334"
   d="m 254.0458,776.59921 c -20.23221,-7.20535 -26.62109,-33.06165 -11.95085,-48.3661 18.83855,-19.65296 51.66062,-6.70059 51.60062,20.36281 -0.0456,20.59195 -20.2976,34.89522 -39.64977,28.00329 z"
   id="path4666" /><path
   style="fill:url(#radialGradient4654);fill-opacity:1;stroke-width:1.20936334"
   d="m 977.24507,776.53001 c -12.06564,-4.16718 -19.66881,-14.82142 -19.73015,-27.64767 -0.0405,-8.47044 2.45519,-15.09499 7.77931,-20.64927 14.76548,-15.4038 39.87537,-11.50094 48.75977,7.5788 7.7005,16.53727 -0.9274,36.08511 -18.2018,41.23878 -7.65886,2.28498 -10.73282,2.19896 -18.60713,-0.52064 z"
   id="path4664" /><path
   style="fill:url(#radialGradient4654);fill-opacity:1;stroke-width:1.20936334"
   d="m 259.07812,360.23187 c -2.76453,-0.48737 -7.11823,-1.95868 -9.6749,-3.26957 -16.90031,-8.66541 -20.31807,-33.3237 -6.52993,-47.11183 5.52441,-5.5244 10.22156,-7.67278 18.39619,-8.41404 18.41005,-1.66937 33.63973,13.36629 32.16375,31.75398 -0.67162,8.36694 -2.80945,13.19288 -8.25786,18.6413 -6.98389,6.98389 -16.59066,10.07611 -26.09725,8.40016 z"
   id="path4662" /><path
   style="fill:url(#radialGradient4654);fill-opacity:1;stroke-width:1.20936334"
   d="m 982.2774,360.23187 c -2.76454,-0.48737 -7.11825,-1.95868 -9.67491,-3.26957 -16.90031,-8.66541 -20.31806,-33.3237 -6.52993,-47.11183 5.5244,-5.5244 10.22156,-7.67278 18.3962,-8.41404 18.41004,-1.66937 33.63974,13.36629 32.16374,31.75398 -0.6716,8.36694 -2.8094,13.19288 -8.2578,18.6413 -6.9839,6.98389 -16.59071,10.07611 -26.0973,8.40016 z"
   id="path4660" /><path
   style="fill:url(#radialGradient4654);fill-opacity:1;stroke-width:1.20936334"
   d="m 620.67777,144.9652 c -2.76453,-0.48737 -7.11824,-1.95868 -9.67491,-3.26957 -16.90031,-8.66541 -20.31807,-33.3237 -6.52994,-47.11183 5.52441,-5.52441 10.22157,-7.6728 18.3962,-8.41404 18.41005,-1.66937 33.63973,13.36628 32.16375,31.75398 -0.67161,8.36694 -2.80945,13.19288 -8.25786,18.6413 -6.98388,6.98389 -16.59066,10.07611 -26.09724,8.40016 z"
   id="path4616" /><g
   id="g4646"
   transform="matrix(2.5779309,0,0,2.5779309,481.32066,2207.8469)"><path
     id="path9"
     d="m 105.84704,-690.34808 c 0.077,1.313 -1.786,0.968 -1.786,2.293 0,38.551 -44.72,96.831 -89.847,108.19 v 1.182 c 59.957,-5.51 126.73,-66.8 128.24,-125.85 l -36.6,14.189 z"
     style="fill:url(#linearGradient4656)"
     inkscape:connector-curvature="0" /><path
     id="path11"
     d="m 89.78704,-686.57708 c 0.077,1.313 0.121,2.633 0.121,3.958 0,38.551 -30.7,90.497 -75.827,101.86 v 1.637 c 59.065,-3.823 105.81,-63.023 105.81,-109.2 0,-2.375 -0.125,-4.729 -0.371,-7.056 l -29.73,8.796 z"
     inkscape:connector-curvature="0"
     style="fill:#e96d1f" /><path
     id="path20"
     d="m 119.89704,-695.77708 -7.833,2.625 c 0.041,0.963 0.191,2.203 0.191,3.173 0,41.219 -37.272,98.205 -87.274,107.12 -3.243,1.089 -7.538,2.077 -10.93,2.932 v 1.639 c 68.344,-8.66 111.18,-71.719 105.84,-117.49 z"
     inkscape:connector-curvature="0"
     style="fill:#d9541e" /><path
     id="path22"
     d="m 6.15604,-690.34808 c -0.077,1.313 1.787,0.968 1.787,2.293 0,38.551 46.558,97.366 91.688,108.73 v 1.639 c -59.953,-5.52 -128.56,-67.8 -130.07,-126.85 l 36.599,14.189 z"
     style="fill:url(#SVGID_2_)"
     inkscape:connector-curvature="0" /><path
     id="path24"
     d="m 24.28804,-685.60508 c -0.076,1.313 -0.12,2.63 -0.12,3.957 0,38.551 30.699,90.497 75.827,101.86 v 1.639 c -59.044,-2.79 -105.81,-63.024 -105.81,-109.2 0,-2.375 0.128,-4.729 0.371,-7.056 l 29.73,8.798 z"
     inkscape:connector-curvature="0"
     style="fill:#a0ce67" /><path
     id="path26"
     d="m -5.72996,-694.95408 7.617,2.722 c -0.041,0.962 -0.066,2.254 -0.066,3.225 0,41.219 37.271,98.204 87.272,107.12 3.245,1.088 7.538,2.077 10.932,2.931 v 1.638 c -65.254,-5.56 -111.1,-71.866 -105.76,-117.64 z"
     inkscape:connector-curvature="0"
     style="fill:#439639" /></g></svg>