<svg xmlns="http://www.w3.org/2000/svg" width="24" height="24" viewBox="0 0 24 24"><g fill="currentColor" fill-rule="evenodd" clip-rule="evenodd"><path d="M17.521.238C4.454-.15 3.365-.15 1.807.902C-.016 2.14.244 3.987.23 5.967c-.096 14.11-.396 17.569 3.84 17.714c3.014.123 15.77.842 17.976-.396c1.74-.97 1.657-2.985 1.673-5.7C23.81.918 24.802.457 17.52.238m5.014 2.46a61.5 61.5 0 0 1 .086 9.917c-.03 9.66.59 9.986-4.289 10.077c-2.72.06-5.435.079-8.128-.023c-9.47-.396-8.527 1.149-8.7-10.328c0-.622-.145-8.425.069-9.198c.393-1.407 1.79-1.824 3.248-1.972c.607-.058 14.69-.232 16.25.226A1.95 1.95 0 0 1 22.554 2.7z"/><path d="M4.39 4.08c.932.65 1.61 1.2 2.802 1.993c1.193.792 1.178.454.078 1.042C4.332 8.7 4.077 8.89 4.282 9.298c.206.41.362.323 3.035-.875c3.335-1.49 4.966-1.336-2.534-5.017a.39.39 0 1 0-.393.674m12.068 5.708a.41.41 0 1 0-.015-.818a15.5 15.5 0 0 0-5.19.057c-.729-.023-1.25 1.728 5.205.761"/></g></svg>