<svg xmlns="http://www.w3.org/2000/svg" width="64" height="64" viewBox="0 0 64 64">
  <g stroke="#22c55e" stroke-width="2.4" stroke-linecap="round" stroke-linejoin="round" fill="none">
    <line x1="19.7" y1="18.1" x2="26.3" y2="15.9" />
    <line x1="19.0" y1="23.3" x2="27.0" y2="28.7" />
    <line x1="17.1" y1="25.1" x2="28.9" y2="44.9" />
    <line x1="17.1" y1="38.9" x2="28.9" y2="19.1" />
    <line x1="19.0" y1="40.7" x2="27.0" y2="35.3" />
    <line x1="19.7" y1="45.9" x2="26.3" y2="48.1" />
    <line x1="37.7" y1="15.9" x2="44.3" y2="18.1" />
    <line x1="35.1" y1="19.1" x2="46.9" y2="38.9" />
    <line x1="37.0" y1="28.7" x2="45.0" y2="23.3" />
    <line x1="37.0" y1="35.3" x2="45.0" y2="40.7" />
    <line x1="35.1" y1="44.9" x2="46.9" y2="25.1" />
    <line x1="37.7" y1="48.1" x2="44.3" y2="45.9" />
  </g>
  <g fill="none" stroke="#22c55e" stroke-width="2.4">
    <circle cx="14" cy="20" r="6" />
    <circle cx="14" cy="44" r="6" />
    <circle cx="32" cy="14" r="6" />
    <circle cx="32" cy="32" r="6" />
    <circle cx="32" cy="50" r="6" />
    <circle cx="50" cy="20" r="6" />
    <circle cx="50" cy="44" r="6" />
  </g>
</svg>
